HIERARCHY
ROOT Hips
{
  OFFSET 5.72205e-005 65.662 3.42586
  CHANNELS 6 Xposition Yposition Zposition Zrotation Xrotation Yrotation
  JOINT Chest
  {
    OFFSET 0 8.7983 -4.7612
    CHANNELS 6 Xposition Yposition Zposition Zrotation Xrotation Yrotation
    JOINT Chest2
    {
      OFFSET 0 8.0291 0.4195
      CHANNELS 6 Xposition Yposition Zposition Zrotation Xrotation Yrotation
      JOINT Chest3
      {
        OFFSET 0 9.9351 -2.2114
        CHANNELS 6 Xposition Yposition Zposition Zrotation Xrotation Yrotation
        JOINT Neck
        {
          OFFSET 0 22.3885 -0.4656
          CHANNELS 6 Xposition Yposition Zposition Zrotation Xrotation Yrotation
          JOINT Head
          {
            OFFSET -0.0001 12.643 3.4389
            CHANNELS 6 Xposition Yposition Zposition Zrotation Xrotation Yrotation
            End Site
            {
              OFFSET 0.0001 17.6655 0.5274
            }
          }
        }
        JOINT LeftCollar
        {
          OFFSET 2.2603 21.606 7.4023
          CHANNELS 6 Xposition Yposition Zposition Zrotation Xrotation Yrotation
          JOINT LeftShoulder
          {
            OFFSET 13.5163 -1.1332 -5.0146
            CHANNELS 6 Xposition Yposition Zposition Zrotation Xrotation Yrotation
            JOINT LeftElbow
            {
              OFFSET -0.0995 -28.05 -0.2431
              CHANNELS 6 Xposition Yposition Zposition Zrotation Xrotation Yrotation
              JOINT LeftWrist
              {
                OFFSET 0.0679 -23.3996 -0.1402
                CHANNELS 6 Xposition Yposition Zposition Zrotation Xrotation Yrotation
                JOINT LeftFinger1
                {
                  OFFSET 0.7932 -9.069 2.5189
                  CHANNELS 6 Xposition Yposition Zposition Zrotation Xrotation Yrotation
                  JOINT LeftFinger11
                  {
                    OFFSET -0.8272 -3.3923 0.5977
                    CHANNELS 6 Xposition Yposition Zposition Zrotation Xrotation Yrotation
                    JOINT LeftFinger12
                    {
                      OFFSET -0.5649 -2.3158 0.4082
                      CHANNELS 6 Xposition Yposition Zposition Zrotation Xrotation Yrotation
                      End Site
                      {
                        OFFSET -0.4919 -1.6479 0.2673
                      }
                    }
                  }
                }
                JOINT LeftFinger2
                {
                  OFFSET 0.9159 -9.2044 0.2193
                  CHANNELS 6 Xposition Yposition Zposition Zrotation Xrotation Yrotation
                  JOINT LeftFinger21
                  {
                    OFFSET 0.0117 -4.1944 -0.0248
                    CHANNELS 6 Xposition Yposition Zposition Zrotation Xrotation Yrotation
                    JOINT LeftFinger22
                    {
                      OFFSET 0.0071 -2.3249 -0.0142
                      CHANNELS 6 Xposition Yposition Zposition Zrotation Xrotation Yrotation
                      End Site
                      {
                        OFFSET -0.1475 -2.0882 0.0028
                      }
                    }
                  }
                }
                JOINT LeftFinger3
                {
                  OFFSET 0.6113 -8.7231 -2.0637
                  CHANNELS 6 Xposition Yposition Zposition Zrotation Xrotation Yrotation
                  JOINT LeftFinger31
                  {
                    OFFSET -0.1927 -3.8059 -0.2383
                    CHANNELS 6 Xposition Yposition Zposition Zrotation Xrotation Yrotation
                    JOINT LeftFinger32
                    {
                      OFFSET -0.1091 -2.1688 -0.1362
                      CHANNELS 6 Xposition Yposition Zposition Zrotation Xrotation Yrotation
                      End Site
                      {
                        OFFSET -0.2358 -1.9176 -0.0906
                      }
                    }
                  }
                }
                JOINT LeftFinger4
                {
                  OFFSET -0.6151 -8.0947 -3.5641
                  CHANNELS 6 Xposition Yposition Zposition Zrotation Xrotation Yrotation
                  JOINT LeftFinger41
                  {
                    OFFSET -0.4882 -2.341 -0.6462
                    CHANNELS 6 Xposition Yposition Zposition Zrotation Xrotation Yrotation
                    JOINT LeftFinger42
                    {
                      OFFSET -0.3575 -1.7167 -0.4742
                      CHANNELS 6 Xposition Yposition Zposition Zrotation Xrotation Yrotation
                      End Site
                      {
                        OFFSET -0.4187 -1.5237 -0.3496
                      }
                    }
                  }
                }
                JOINT LeftFinger0
                {
                  OFFSET -1.42 -1.8761 1.4223
                  CHANNELS 6 Xposition Yposition Zposition Zrotation Xrotation Yrotation
                  JOINT LeftFinger01
                  {
                    OFFSET -1.1471 -3.4929 2.6334
                    CHANNELS 6 Xposition Yposition Zposition Zrotation Xrotation Yrotation
                    JOINT LeftFinger02
                    {
                      OFFSET -0.823 -2.3 1.6571
                      CHANNELS 6 Xposition Yposition Zposition Zrotation Xrotation Yrotation
                      End Site
                      {
                        OFFSET -0.5822 -1.6914 1.1582
                      }
                    }
                  }
                }
              }
            }
          }
        }
        JOINT RightCollar
        {
          OFFSET -2.2603 21.606 7.4023
          CHANNELS 6 Xposition Yposition Zposition Zrotation Xrotation Yrotation
          JOINT RightShoulder
          {
            OFFSET -13.5187 -1.1334 -5.0155
            CHANNELS 6 Xposition Yposition Zposition Zrotation Xrotation Yrotation
            JOINT RightElbow
            {
              OFFSET 0.0994 -28.0499 -0.2431
              CHANNELS 6 Xposition Yposition Zposition Zrotation Xrotation Yrotation
              JOINT RightWrist
              {
                OFFSET -0.0679 -23.3996 -0.1402
                CHANNELS 6 Xposition Yposition Zposition Zrotation Xrotation Yrotation
                JOINT RightFinger1
                {
                  OFFSET -0.7932 -9.0691 2.5189
                  CHANNELS 6 Xposition Yposition Zposition Zrotation Xrotation Yrotation
                  JOINT RightFinger11
                  {
                    OFFSET 0.8272 -3.3923 0.5977
                    CHANNELS 6 Xposition Yposition Zposition Zrotation Xrotation Yrotation
                    JOINT RightFinger12
                    {
                      OFFSET 0.565 -2.3158 0.4082
                      CHANNELS 6 Xposition Yposition Zposition Zrotation Xrotation Yrotation
                      End Site
                      {
                        OFFSET 0.4919 -1.6479 0.2673
                      }
                    }
                  }
                }
                JOINT RightFinger2
                {
                  OFFSET -0.916 -9.2044 0.2193
                  CHANNELS 6 Xposition Yposition Zposition Zrotation Xrotation Yrotation
                  JOINT RightFinger21
                  {
                    OFFSET -0.0117 -4.1944 -0.0248
                    CHANNELS 6 Xposition Yposition Zposition Zrotation Xrotation Yrotation
                    JOINT RightFinger22
                    {
                      OFFSET -0.0071 -2.3249 -0.0142
                      CHANNELS 6 Xposition Yposition Zposition Zrotation Xrotation Yrotation
                      End Site
                      {
                        OFFSET 0.1475 -2.0882 0.0028
                      }
                    }
                  }
                }
                JOINT RightFinger3
                {
                  OFFSET -0.6113 -8.7231 -2.0637
                  CHANNELS 6 Xposition Yposition Zposition Zrotation Xrotation Yrotation
                  JOINT RightFinger31
                  {
                    OFFSET 0.1927 -3.8059 -0.2383
                    CHANNELS 6 Xposition Yposition Zposition Zrotation Xrotation Yrotation
                    JOINT RightFinger32
                    {
                      OFFSET 0.1091 -2.1688 -0.1362
                      CHANNELS 6 Xposition Yposition Zposition Zrotation Xrotation Yrotation
                      End Site
                      {
                        OFFSET 0.2358 -1.9176 -0.0906
                      }
                    }
                  }
                }
                JOINT RightFinger4
                {
                  OFFSET 0.6151 -8.0947 -3.564
                  CHANNELS 6 Xposition Yposition Zposition Zrotation Xrotation Yrotation
                  JOINT RightFinger41
                  {
                    OFFSET 0.4882 -2.341 -0.6462
                    CHANNELS 6 Xposition Yposition Zposition Zrotation Xrotation Yrotation
                    JOINT RightFinger42
                    {
                      OFFSET 0.3574 -1.7166 -0.4742
                      CHANNELS 6 Xposition Yposition Zposition Zrotation Xrotation Yrotation
                      End Site
                      {
                        OFFSET 0.4187 -1.5237 -0.3496
                      }
                    }
                  }
                }
                JOINT RightFinger0
                {
                  OFFSET 1.4199 -1.8761 1.4221
                  CHANNELS 6 Xposition Yposition Zposition Zrotation Xrotation Yrotation
                  JOINT RightFinger01
                  {
                    OFFSET 1.1472 -3.4929 2.6336
                    CHANNELS 6 Xposition Yposition Zposition Zrotation Xrotation Yrotation
                    JOINT RightFinger02
                    {
                      OFFSET 0.8229 -2.3 1.6571
                      CHANNELS 6 Xposition Yposition Zposition Zrotation Xrotation Yrotation
                      End Site
                      {
                        OFFSET 0.5822 -1.6914 1.1582
                      }
                    }
                  }
                }
              }
            }
          }
        }
      }
    }
  }
  JOINT RightHip
  {
    OFFSET -9.412 3.9771 -0.7758
    CHANNELS 6 Xposition Yposition Zposition Zrotation Xrotation Yrotation
    JOINT RightKnee
    {
      OFFSET -0.7531 -40.938 0
      CHANNELS 6 Xposition Yposition Zposition Zrotation Xrotation Yrotation
      JOINT RightAnkle
      {
        OFFSET 0 -40.1986 0
        CHANNELS 6 Xposition Yposition Zposition Zrotation Xrotation Yrotation
        JOINT RightToe
        {
          OFFSET 0 -4.4182 9.239
          CHANNELS 6 Xposition Yposition Zposition Zrotation Xrotation Yrotation
          End Site
          {
            OFFSET 0 0 6.1981
          }
        }
      }
    }
  }
  JOINT LeftHip
  {
    OFFSET 9.4119 3.9773 -0.7758
    CHANNELS 6 Xposition Yposition Zposition Zrotation Xrotation Yrotation
    JOINT LeftKnee
    {
      OFFSET 0.7532 -40.9383 0
      CHANNELS 6 Xposition Yposition Zposition Zrotation Xrotation Yrotation
      JOINT LeftAnkle
      {
        OFFSET 0 -40.1986 0
        CHANNELS 6 Xposition Yposition Zposition Zrotation Xrotation Yrotation
        JOINT LeftToe
        {
          OFFSET 0 -4.4182 9.239
          CHANNELS 6 Xposition Yposition Zposition Zrotation Xrotation Yrotation
          End Site
          {
            OFFSET 0 0 6.1981
          }
        }
      }
    }
  }
}
MOTION
Frames:	4
Frame Time:	0.0333333
39.8405 -4.38032 9.64252 -7.92419e-009 -25.0011 -8.75978e-008 0 8.7983 -4.7612 -0.0192035 -1.04719 -0.128889 -7.10543e-015 8.0291 0.4195 -0.040774 -2.09435 -0.258195 7.10543e-015 9.9351 -2.2114 -0.0407737 -2.09433 -0.258193 -7.10543e-015 22.3885 -0.4656 10.6441 19.9448 9.32882 -0.0001 12.643 3.4389 -3.95069e-007 12.3712 -4.0596e-006 2.2603 21.606 7.4023 -11.7793 6.8164 -15.5578 13.5163 -1.1332 -5.0146 38.8355 -32.9467 35.606 -0.0995 -28.05 -0.2431 2.69964 -16.4864 -32.8999 0.0679 -23.3996 -0.1402 -52.2838 12.7589 -7.2407 0.7932 -9.069 2.5189 3.18055e-015 1.11319e-014 -4.77083e-015 -0.8272 -3.3923 0.5977 3.48974e-006 -3.54397e-006 3.33113e-006 -0.5649 -2.3158 0.4082 3.18055e-015 3.18055e-015 1.59028e-015 0.9159 -9.2044 0.2193 3.18055e-015 1.11319e-014 -4.77083e-015 0.0117 -4.1944 -0.0248 -0.0128321 0.00233942 8.97181e-005 0.0071 -2.3249 -0.0142 -9.54166e-015 -7.95139e-015 -3.18055e-015 0.6113 -8.7231 -2.0637 3.18055e-015 1.11319e-014 -4.77083e-015 -0.1927 -3.8059 -0.2383 -0.0160899 0.00299767 0.000858627 -0.1091 -2.1688 -0.1362 2.21739e-006 3.95112e-007 1.01552e-006 -0.6151 -8.0947 -3.5641 3.18055e-015 1.11319e-014 -4.77083e-015 -0.4882 -2.341 -0.6462 -0.0125623 0.00310921 0.00282408 -0.3575 -1.7167 -0.4742 -6.17947e-031 1.11319e-014 3.18055e-015 -1.42 -1.8761 1.4223 3.18055e-015 1.11319e-014 -4.77083e-015 -1.1471 -3.4929 2.6334 3.48974e-006 -3.54397e-006 3.33113e-006 -0.823 -2.3 1.6571 3.18055e-015 3.18055e-015 1.59028e-015 -2.2603 21.606 7.4023 11.0511 6.80367 10.5493 -13.5187 -1.1334 -5.0155 -35.7795 -34.4578 -30.7708 0.0994 -28.0499 -0.2431 -3.4363 -17.6729 32.2743 -0.0679 -23.3996 -0.1402 52.0994 13.3959 8.54748 -0.7932 -9.0691 2.5189 -1.14714e-006 -4.29366e-007 1.12173e-006 0.8272 -3.3923 0.5977 -1.11525e-006 -2.50449e-006 -2.23563e-006 0.565 -2.3158 0.4082 6.36111e-015 0 3.18055e-015 -0.916 -9.2044 0.2193 -1.14714e-006 -4.29366e-007 1.12173e-006 -0.0117 -4.1944 -0.0248 0.0129589 0.00232958 -9.93703e-005 -0.0071 -2.3249 -0.0142 -1.76556e-031 -3.18055e-015 -3.18055e-015 -0.6113 -8.7231 -2.0637 -1.14714e-006 -4.29366e-007 1.12173e-006 0.1927 -3.8059 -0.2383 0.0163072 0.00302719 -0.000870929 0.1091 -2.1688 -0.1362 -3.39386e-006 -4.38157e-006 -3.4355e-006 0.6151 -8.0947 -3.564 -1.14714e-006 -4.29366e-007 1.12173e-006 0.4882 -2.341 -0.6462 0.014579 0.00366932 -0.0032645 0.3574 -1.7166 -0.4742 -4.54119e-006 -3.90176e-006 -2.31385e-006 1.4199 -1.8761 1.4221 -1.14714e-006 -4.29366e-007 1.12173e-006 1.1472 -3.4929 2.6336 -1.11525e-006 -2.50449e-006 -2.23563e-006 0.8229 -2.3 1.6571 6.36111e-015 0 3.18055e-015 -9.412 3.9771 -0.7758 -52.2804 -50.9071 -121.735 -0.7531 -40.938 -7.10543e-015 2.01462 53.1761 -2.25642 1.77636e-015 -40.1986 1.77636e-015 -3.24711 12.1711 -7.41122 0 -4.4182 9.239 1.70962e-006 -4.5394e-006 4.93983e-006 9.4119 3.9773 -0.7758 52.2799 -50.9087 121.71 0.7532 -40.9383 7.10543e-015 -2.06101 53.1955 2.2689 0 -40.1986 0 3.2481 12.1774 7.4172 -1.77636e-015 -4.4182 9.239 -3.18055e-015 -9.54166e-015 -1.59028e-015 
39.8405 -4.38031 9.67415 -6.04436e-009 -25.0011 -2.4509e-008 7.10543e-015 8.7983 -4.7612 -0.0188904 -1.11808 -0.128967 0 8.0291 0.4195 -0.0403099 -2.23608 -0.258377 0 9.9351 -2.2114 -0.0403099 -2.23608 -0.258377 0 22.3885 -0.4656 10.6077 19.4026 9.43689 -0.0001 12.643 3.4389 3.86863e-006 11.8298 3.27719e-006 2.2603 21.606 7.4023 -11.843 7.08327 -15.3324 13.5163 -1.1332 -5.0146 38.7106 -32.9528 35.5198 -0.0995 -28.05 -0.2431 2.68769 -16.6168 -32.8971 0.0679 -23.3996 -0.1402 -52.3324 12.9128 -7.27191 0.7932 -9.069 2.5189 3.48998e-006 -2.68685e-006 3.33089e-006 -0.8272 -3.3923 0.5977 -2.64834e-031 4.77083e-015 3.18055e-015 -0.5649 -2.3158 0.4082 0 1.27222e-014 -0 0.9159 -9.2044 0.2193 3.48998e-006 -2.68685e-006 3.33089e-006 0.0117 -4.1944 -0.0248 -0.0128289 0.00233174 8.70055e-005 0.0071 -2.3249 -0.0142 9.54166e-015 0 -3.18055e-015 0.6113 -8.7231 -2.0637 3.48998e-006 -2.68685e-006 3.33089e-006 -0.1927 -3.8059 -0.2383 -0.0160679 0.00299113 0.000861713 -0.1091 -2.1688 -0.1362 6.36111e-015 1.59028e-015 3.18055e-015 -0.6151 -8.0947 -3.5641 3.48998e-006 -2.68685e-006 3.33089e-006 -0.4882 -2.341 -0.6462 -0.0126207 0.00313694 0.00283466 -0.3575 -1.7167 -0.4742 3.18055e-015 3.18055e-015 -0 -1.42 -1.8761 1.4223 3.48998e-006 -2.68685e-006 3.33089e-006 -1.1471 -3.4929 2.6334 -2.64834e-031 4.77083e-015 3.18055e-015 -0.823 -2.3 1.6571 0 1.27222e-014 -0 -2.2603 21.606 7.4023 11.1101 7.06849 10.3234 -13.5187 -1.1334 -5.0155 -35.6483 -34.4563 -30.6737 0.0994 -28.0499 -0.2431 -3.42911 -17.8062 32.2668 -0.0679 -23.3996 -0.1402 52.1471 13.5561 8.58635 -0.7932 -9.0691 2.5189 6.36111e-015 7.95139e-015 1.59028e-015 0.8272 -3.3923 0.5977 4.41391e-032 -1.59028e-015 1.59028e-015 0.565 -2.3158 0.4082 -3.18055e-015 3.18055e-015 -4.77083e-015 -0.916 -9.2044 0.2193 6.36111e-015 7.95139e-015 1.59028e-015 -0.0117 -4.1944 -0.0248 0.0129953 0.00232123 -8.13164e-005 -0.0071 -2.3249 -0.0142 -1.76556e-031 6.36111e-015 1.59028e-015 -0.6113 -8.7231 -2.0637 6.36111e-015 7.95139e-015 1.59028e-015 0.1927 -3.8059 -0.2383 0.0163378 0.00301284 -0.000871767 0.1091 -2.1688 -0.1362 1.59028e-014 0 3.18055e-015 0.6151 -8.0947 -3.564 6.36111e-015 7.95139e-015 1.59028e-015 0.4882 -2.341 -0.6462 0.0145331 0.0036651 -0.00325454 0.3574 -1.7166 -0.4742 1.11462e-006 1.59622e-006 2.23582e-006 1.4199 -1.8761 1.4221 6.36111e-015 7.95139e-015 1.59028e-015 1.1472 -3.4929 2.6336 4.41391e-032 -1.59028e-015 1.59028e-015 0.8229 -2.3 1.6571 -3.18055e-015 3.18055e-015 -4.77083e-015 -9.412 3.9771 -0.7758 -52.2805 -50.9071 -121.735 -0.7531 -40.938 -7.10543e-015 2.01464 53.1761 -2.25646 -1.77636e-015 -40.1986 -7.10543e-015 -3.24712 12.1711 -7.41122 1.77636e-015 -4.4182 9.239 8.72041e-006 3.07584e-006 -2.58994e-006 9.4119 3.9773 -0.7758 52.2799 -50.9087 121.71 0.7532 -40.9383 0 -2.06092 53.1956 2.26882 0 -40.1986 0 3.24807 12.1773 7.41722 0 -4.4182 9.239 1.59028e-015 -6.36111e-015 6.36111e-015 
39.8405 -4.38032 9.70576 1.93609e-009 -25.0011 6.95936e-009 7.10543e-015 8.7983 -4.7612 -0.0185764 -1.18889 -0.12904 0 8.0291 0.4195 -0.0398445 -2.37772 -0.258548 0 9.9351 -2.2114 -0.0398445 -2.37772 -0.258548 -7.10543e-015 22.3885 -0.4656 10.5725 18.8591 9.54445 -0.0001 12.643 3.4389 1.67834e-006 11.2875 1.16959e-006 2.2603 21.606 7.4023 -11.9077 7.34967 -15.1067 13.5163 -1.1332 -5.0146 38.5842 -32.9593 35.4327 -0.0995 -28.05 -0.2431 2.67705 -16.7475 -32.8943 0.0679 -23.3996 -0.1402 -52.3809 13.0668 -7.30303 0.7932 -9.06901 2.5189 -9.54166e-015 1.90833e-014 -3.18055e-015 -0.8272 -3.3923 0.5977 1.13181e-006 -2.93994e-007 -1.14791e-006 -0.5649 -2.3158 0.4082 -9.54166e-015 0 1.59028e-015 0.9159 -9.20441 0.2193 -9.54166e-015 1.90833e-014 -3.18055e-015 0.0117 -4.1944 -0.0248 -0.0128667 0.00232619 8.1993e-005 0.0071 -2.3249 -0.0142 -1.13198e-006 -3.26345e-006 1.14787e-006 0.6113 -8.72311 -2.0637 -9.54166e-015 1.90833e-014 -3.18055e-015 -0.1927 -3.8059 -0.2383 -0.0160872 0.00298615 0.000850241 -0.1091 -2.1688 -0.1362 6.36111e-015 9.54166e-015 -1.59028e-015 -0.6151 -8.09471 -3.5641 -9.54166e-015 1.90833e-014 -3.18055e-015 -0.4882 -2.341 -0.6462 -0.0127134 0.00314196 0.00284725 -0.3575 -1.7167 -0.4742 -3.18055e-015 9.54166e-015 -1.59028e-015 -1.42 -1.8761 1.4223 -9.54166e-015 1.90833e-014 -3.18055e-015 -1.1471 -3.4929 2.6334 1.13181e-006 -2.93994e-007 -1.14791e-006 -0.823 -2.3 1.6571 -9.54166e-015 0 1.59028e-015 -2.2603 21.606 7.4023 11.1702 7.33284 10.0971 -13.5187 -1.1334 -5.0155 -35.5336 -34.4504 -30.5858 0.0994 -28.0499 -0.2431 -3.40798 -17.9363 32.2594 -0.0679 -23.3996 -0.1402 52.1948 13.7164 8.62511 -0.7932 -9.0691 2.5189 -5.69288e-006 2.12202e-005 -1.53062e-005 0.8272 -3.3923 0.5977 2.29389e-006 -2.05814e-006 -2.24382e-006 0.565 -2.3158 0.4082 -3.18055e-015 -3.18055e-015 -3.18055e-015 -0.916 -9.2044 0.2193 -5.69288e-006 2.12202e-005 -1.53062e-005 -0.0117 -4.1944 -0.0248 0.0129213 0.00230343 -8.74554e-005 -0.0071 -2.3249 -0.0142 -2.27943e-006 -1.87468e-006 -1.19938e-006 -0.6113 -8.7231 -2.0637 -5.69288e-006 2.12202e-005 -1.53062e-005 0.1927 -3.8059 -0.2383 0.0163287 0.00301886 -0.000877739 0.1091 -2.1688 -0.1362 2.26766e-006 -9.73306e-006 8.17118e-006 0.6151 -8.0947 -3.564 -5.69288e-006 2.12202e-005 -1.53062e-005 0.4882 -2.341 -0.6462 0.0145854 0.00366745 -0.00326654 0.3574 -1.7166 -0.4742 -9.14762e-006 1.05231e-006 2.08892e-006 1.4199 -1.8761 1.4221 -5.69288e-006 2.12202e-005 -1.53062e-005 1.1472 -3.4929 2.6336 2.29389e-006 -2.05814e-006 -2.24382e-006 0.8229 -2.3 1.6571 -3.18055e-015 -3.18055e-015 -3.18055e-015 -9.412 3.9771 -0.7758 -52.2806 -50.907 -121.735 -0.7531 -40.938 0 2.0147 53.1762 -2.25647 -1.77636e-015 -40.1986 -3.55271e-015 -3.24711 12.1712 -7.41125 -1.77636e-015 -4.4182 9.239 4.45034e-006 2.3688e-006 6.67255e-006 9.4119 3.9773 -0.7758 52.2803 -50.9084 121.71 0.7532 -40.9383 7.10543e-015 -2.06111 53.1959 2.26897 -1.77636e-015 -40.1986 0 3.24815 12.1774 7.41721 0 -4.4182 9.239 -7.45828e-006 2.67683e-006 5.32671e-006 
39.8405 -4.38032 9.73739 -1.57088e-008 -25.0011 -8.56412e-008 0 8.7983 -4.7612 -0.0182625 -1.25967 -0.12911 0 8.0291 0.4195 -0.0393795 -2.5193 -0.258717 7.10543e-015 9.9351 -2.2114 -0.0393793 -2.51929 -0.258716 0 22.3885 -0.4656 10.5384 18.3147 9.65148 -0.0001 12.643 3.4389 -1.66372e-006 10.7443 2.18576e-006 2.2603 21.606 7.4023 -11.9735 7.61578 -14.8806 13.5163 -1.1332 -5.0146 38.4562 -32.9663 35.3448 -0.0995 -28.05 -0.2431 2.66788 -16.8783 -32.8915 0.0679 -23.3996 -0.1402 -52.4294 13.2208 -7.33398 0.7932 -9.069 2.5189 9.54166e-015 4.77083e-015 -3.18055e-015 -0.8272 -3.3923 0.5977 6.36111e-015 1.43125e-014 -1.59028e-015 -0.5649 -2.3158 0.4082 2.21851e-006 -8.36564e-007 1.01489e-006 0.9159 -9.2044 0.2193 9.54166e-015 4.77083e-015 -3.18055e-015 0.0117 -4.1944 -0.0248 -0.0128076 0.0023268 9.61933e-005 0.0071 -2.3249 -0.0142 -3.18055e-015 -1.11319e-014 1.59028e-015 0.6113 -8.7231 -2.0637 9.54166e-015 4.77083e-015 -3.18055e-015 -0.1927 -3.8059 -0.2383 -0.0160914 0.00300812 0.000855285 -0.1091 -2.1688 -0.1362 6.36111e-015 -3.18055e-015 -3.18055e-015 -0.6151 -8.0947 -3.5641 9.54166e-015 4.77083e-015 -3.18055e-015 -0.4882 -2.341 -0.6462 -0.0126093 0.00311961 0.00282167 -0.3575 -1.7167 -0.4742 1.08605e-006 -2.56239e-006 2.16312e-006 -1.42 -1.8761 1.4223 9.54166e-015 4.77083e-015 -3.18055e-015 -1.1471 -3.4929 2.6334 6.36111e-015 1.43125e-014 -1.59028e-015 -0.823 -2.3 1.6571 2.21851e-006 -8.36564e-007 1.01489e-006 -2.2603 21.606 7.4023 11.2314 7.59691 9.87049 -13.5187 -1.1334 -5.0155 -35.3981 -34.4498 -30.4863 0.0994 -28.0499 -0.2431 -3.4044 -18.0704 32.252 -0.0679 -23.3996 -0.1402 52.2424 13.8767 8.66377 -0.7932 -9.0691 2.5189 3.18055e-015 -1.59028e-015 -0 0.8272 -3.3923 0.5977 -3.18055e-015 1.11319e-014 -3.18055e-015 0.565 -2.3158 0.4082 4.41391e-031 -7.95139e-015 3.18055e-015 -0.916 -9.2044 0.2193 3.18055e-015 -1.59028e-015 -0 -0.0117 -4.1944 -0.0248 0.0129736 0.00231253 -8.62482e-005 -0.0071 -2.3249 -0.0142 -7.94503e-031 -9.54166e-015 -4.77083e-015 -0.6113 -8.7231 -2.0637 3.18055e-015 -1.59028e-015 -0 0.1927 -3.8059 -0.2383 0.0163217 0.00301538 -0.000862247 0.1091 -2.1688 -0.1362 9.54166e-015 -4.77083e-015 -1.59028e-015 0.6151 -8.0947 -3.564 3.18055e-015 -1.59028e-015 -0 0.4882 -2.341 -0.6462 0.0145564 0.00366604 -0.00325357 0.3574 -1.7166 -0.4742 1.14443e-005 -9.24275e-006 -8.0549e-007 1.4199 -1.8761 1.4221 3.18055e-015 -1.59028e-015 -0 1.1472 -3.4929 2.6336 -3.18055e-015 1.11319e-014 -3.18055e-015 0.8229 -2.3 1.6571 4.41391e-031 -7.95139e-015 3.18055e-015 -9.412 3.9771 -0.7758 -52.2805 -50.9071 -121.735 -0.7531 -40.938 -3.55271e-015 2.01469 53.1761 -2.25649 -8.88179e-016 -40.1986 -1.77636e-015 -3.24715 12.1711 -7.41122 -3.55271e-015 -4.4182 9.239 4.08395e-007 -2.31844e-006 2.36573e-006 9.4119 3.9773 -0.7758 52.2803 -50.9084 121.71 0.7532 -40.9383 7.10543e-015 -2.06106 53.1959 2.26893 -3.55271e-015 -40.1986 1.42109e-014 3.24812 12.1773 7.4172 -3.55271e-015 -4.4182 9.239 7.95139e-015 3.18055e-015 -1.59028e-015 
